# xmcd
#
# Track frame offsets:
#	150
#	18442
#	30191
#	45212
#	61025
#	74489
#	92217
#	110742
#	126613
#	152412
#	164390
#	175734
#
# Disc length: 2541 seconds
#
# Revision: 1
# Processed by: cddbd v1.5.2PL0 Copyright (c) Steve Scherf et al.
# Submitted via: audiograbber 1.83.01
#
DISCID=9309eb0c
DTITLE=Simon Hocking - Twinflower
DYEAR=2005
DGENRE=Crossover
TTITLE0=Twinflower
TTITLE1=Living The Blues
TTITLE2=Breakwater
TTITLE3=In A Lake Of You
TTITLE4=Islands
TTITLE5=Find Me A Flower
TTITLE6=They Think They're Rich
TTITLE7=Learning All Along
TTITLE8=Fall Morning
TTITLE9=Open Window
TTITLE10=Leonoma
TTITLE11=Old Old Old
EXTD=Little House Records RG 272\nRecorded on Bowen Island, B.C., Canada\n
EXTT0=
EXTT1=
EXTT2=
EXTT3=
EXTT4=
EXTT5=
EXTT6=
EXTT7=
EXTT8=
EXTT9=
EXTT10=
EXTT11=
PLAYORDER=
